<svg xmlns="http://www.w3.org/2000/svg" version="1.1" xmlns:xlink="http://www.w3.org/1999/xlink" xmlns:svgjs="http://svgjs.dev/svgjs" width="128" height="128" viewBox="0 0 128 128"><g transform="matrix(0.8046875,0,0,0.8046875,12.0378598363042,4.113172038251804)"><svg viewBox="0 0 83 96" data-background-color="#89939e" preserveAspectRatio="xMidYMid meet" height="148" width="128" xmlns="http://www.w3.org/2000/svg" xmlns:xlink="http://www.w3.org/1999/xlink"><g id="tight-bounds" transform="matrix(1,0,0,1,0.372404209580111,0.28993441313076573)"><svg viewBox="0 0 82.25519157887844 95.481" height="95.481" width="82.25519157887844"><g><svg viewBox="0 0 82.25519157887844 95.481" height="95.481" width="82.25519157887844"><g><svg viewBox="0 0 82.25519157887844 95.481" height="95.481" width="82.25519157887844"><g id="textblocktransform"><svg viewBox="0 0 82.25519157887844 95.481" height="95.481" width="82.25519157887844" id="textblock"><g><svg viewBox="0 0 82.25519157887844 95.481" height="95.481" width="82.25519157887844"><g><svg viewBox="0 0 82.25519157887844 95.481" height="95.481" width="82.25519157887844"><g><svg xmlns="http://www.w3.org/2000/svg" xmlns:xlink="http://www.w3.org/1999/xlink" version="1.1" x="0" y="0" viewBox="16.833401563684635 12.229464960917404 63.33319687263071 73.51653864664314" enable-background="new 0 0 100 100" xml:space="preserve" height="95.481" width="82.25519157887844" class="icon-icon-0" data-fill-palette-color="accent" id="icon-0"><g fill="#ffffff" data-fill-palette-color="accent"><path d="M48.5 85.746C36.138 85.746 26.082 72.4 26.082 55.996S36.139 26.246 48.5 26.246 70.918 39.592 70.918 55.996 60.862 85.746 48.5 85.746M48.5 27.246C36.69 27.246 27.082 40.143 27.082 55.996S36.69 84.746 48.5 84.746 69.918 71.849 69.918 55.996 60.31 27.246 48.5 27.246" fill="#ffffff" data-fill-palette-color="accent"></path></g><g fill="#ffffff" data-fill-palette-color="accent"><path d="M34.314 33.777A0.5 0.5 0 0 1 33.919 33.584L30.743 29.506 23.846 27.22A0.5 0.5 0 0 1 24.161 26.271L31.203 28.604A0.5 0.5 0 0 1 31.44 28.771L34.709 32.969A0.502 0.502 0 0 1 34.314 33.777" fill="#ffffff" data-fill-palette-color="accent"></path></g><g fill="#ffffff" data-fill-palette-color="accent"><path d="M27.219 48.231A0.5 0.5 0 0 1 26.812 48.023L23.173 42.956 17.253 41.99A0.5 0.5 0 0 1 17.414 41.003L23.539 42.003A0.5 0.5 0 0 1 23.865 42.205L27.625 47.441A0.5 0.5 0 0 1 27.219 48.231" fill="#ffffff" data-fill-palette-color="accent"></path></g><g fill="#ffffff" data-fill-palette-color="accent"><path d="M62.686 33.777A0.5 0.5 0 0 1 62.292 32.97L65.561 28.772A0.5 0.5 0 0 1 65.798 28.605L72.84 26.272A0.5 0.5 0 0 1 73.155 27.221L66.258 29.507 63.082 33.585A0.51 0.51 0 0 1 62.686 33.777" fill="#ffffff" data-fill-palette-color="accent"></path></g><g fill="#ffffff" data-fill-palette-color="accent"><path d="M69.781 48.231A0.5 0.5 0 0 1 69.375 47.439L73.135 42.203A0.5 0.5 0 0 1 73.461 42.001L79.586 41.001A0.5 0.5 0 1 1 79.747 41.988L73.827 42.954 70.188 48.021A0.5 0.5 0 0 1 69.781 48.231" fill="#ffffff" data-fill-palette-color="accent"></path></g><g fill="#ffffff" data-fill-palette-color="accent"><path d="M24.003 85.746A0.5 0.5 0 0 1 23.845 84.771L30.742 82.485 33.918 78.407A0.5 0.5 0 1 1 34.707 79.022L31.438 83.22A0.5 0.5 0 0 1 31.201 83.387L24.159 85.72A0.5 0.5 0 0 1 24.003 85.746" fill="#ffffff" data-fill-palette-color="accent"></path></g><g fill="#ffffff" data-fill-palette-color="accent"><path d="M17.333 70.996A0.5 0.5 0 0 1 17.253 70.003L23.173 69.037 26.812 63.969A0.5 0.5 0 1 1 27.625 64.552L23.865 69.788A0.5 0.5 0 0 1 23.539 69.99L17.414 70.99z" fill="#ffffff" data-fill-palette-color="accent"></path></g><g fill="#ffffff" data-fill-palette-color="accent"><path d="M72.997 85.746A0.5 0.5 0 0 1 72.84 85.721L65.798 83.388A0.5 0.5 0 0 1 65.561 83.221L62.292 79.023A0.5 0.5 0 0 1 63.081 78.408L66.257 82.486 73.154 84.772A0.5 0.5 0 0 1 72.997 85.746" fill="#ffffff" data-fill-palette-color="accent"></path></g><g fill="#ffffff" data-fill-palette-color="accent"><path d="M79.667 70.996L79.586 70.99 73.461 69.99A0.5 0.5 0 0 1 73.135 69.788L69.375 64.552A0.5 0.5 0 1 1 70.188 63.969L73.827 69.037 79.747 70.003A0.5 0.5 0 0 1 79.667 70.996" fill="#ffffff" data-fill-palette-color="accent"></path></g><g fill="#ffffff" data-fill-palette-color="accent"><path d="M58.829 30.128A0.5 0.5 0 0 1 58.329 29.628C58.329 24.209 53.92 19.8 48.5 19.8S38.671 24.209 38.671 29.628A0.5 0.5 0 0 1 37.671 29.628C37.671 23.657 42.529 18.8 48.5 18.8S59.329 23.657 59.329 29.628A0.5 0.5 0 0 1 58.829 30.128" fill="#ffffff" data-fill-palette-color="accent"></path></g><g fill="#ffffff" data-fill-palette-color="accent"><path d="M42.026 22.082A0.5 0.5 0 0 1 41.688 21.951C38.132 18.693 36.615 16.112 37.179 14.28 37.707 12.569 39.776 12.25 39.864 12.238A0.49 0.49 0 0 1 40.429 12.659 0.5 0.5 0 0 1 40.009 13.227C39.994 13.229 38.471 13.472 38.134 14.579 37.888 15.385 38.112 17.318 42.364 21.214A0.5 0.5 0 0 1 42.026 22.082" fill="#ffffff" data-fill-palette-color="accent"></path></g><g fill="#ffffff" data-fill-palette-color="accent"><path d="M54.974 22.082A0.5 0.5 0 0 1 54.636 21.213C58.893 17.312 59.113 15.379 58.865 14.573 58.528 13.477 57.008 13.228 56.993 13.225A0.5 0.5 0 0 1 56.57 12.659 0.49 0.49 0 0 1 57.136 12.236C57.224 12.249 59.293 12.567 59.821 14.278 60.385 16.11 58.868 18.691 55.312 21.949A0.5 0.5 0 0 1 54.974 22.082" fill="#ffffff" data-fill-palette-color="accent"></path></g><g fill="#ffffff" data-fill-palette-color="accent"><g fill="#ffffff" data-fill-palette-color="accent"><path d="M39.329 53.171C36.867 53.171 34.863 51.168 34.863 48.705S36.866 44.239 39.329 44.239 43.795 46.242 43.795 48.705 41.792 53.171 39.329 53.171M39.329 45.239C37.418 45.239 35.863 46.794 35.863 48.705S37.418 52.171 39.329 52.171 42.795 50.616 42.795 48.705 41.24 45.239 39.329 45.239" fill="#ffffff" data-fill-palette-color="accent"></path></g><g fill="#ffffff" data-fill-palette-color="accent"><path d="M39.329 70.28C36.867 70.28 34.863 68.277 34.863 65.814S36.866 61.348 39.329 61.348 43.795 63.351 43.795 65.814 41.792 70.28 39.329 70.28M39.329 62.348C37.418 62.348 35.863 63.903 35.863 65.814S37.418 69.28 39.329 69.28 42.795 67.725 42.795 65.814 41.24 62.348 39.329 62.348" fill="#ffffff" data-fill-palette-color="accent"></path></g><g fill="#ffffff" data-fill-palette-color="accent"><path d="M57.671 53.171C55.209 53.171 53.205 51.168 53.205 48.705S55.208 44.239 57.671 44.239 62.137 46.242 62.137 48.705 60.133 53.171 57.671 53.171M57.671 45.239C55.76 45.239 54.205 46.794 54.205 48.705S55.76 52.171 57.671 52.171 61.137 50.616 61.137 48.705 59.582 45.239 57.671 45.239" fill="#ffffff" data-fill-palette-color="accent"></path></g><g fill="#ffffff" data-fill-palette-color="accent"><path d="M57.671 70.28C55.209 70.28 53.205 68.277 53.205 65.814S55.208 61.348 57.671 61.348 62.137 63.351 62.137 65.814 60.133 70.28 57.671 70.28M57.671 62.348C55.76 62.348 54.205 63.903 54.205 65.814S55.76 69.28 57.671 69.28 61.137 67.725 61.137 65.814 59.582 62.348 57.671 62.348" fill="#ffffff" data-fill-palette-color="accent"></path></g></g></svg></g></svg></g></svg></g></svg></g></svg></g></svg></g><defs></defs></svg><rect width="82.25519157887844" height="95.481" fill="none" stroke="none" visibility="hidden"></rect></g></svg></g></svg>